<?xml version="1.0" encoding="UTF-8" standalone="no"?>
<!-- Created with Inkscape (http://www.inkscape.org/) -->

<svg
   xmlns:dc="http://purl.org/dc/elements/1.1/"
   xmlns:cc="http://creativecommons.org/ns#"
   xmlns:rdf="http://www.w3.org/1999/02/22-rdf-syntax-ns#"
   xmlns:svg="http://www.w3.org/2000/svg"
   xmlns="http://www.w3.org/2000/svg"
   xmlns:sodipodi="http://sodipodi.sourceforge.net/DTD/sodipodi-0.dtd"
   xmlns:inkscape="http://www.inkscape.org/namespaces/inkscape"
   width="200"
   height="227"
   id="svg3707"
   version="1.1"
   inkscape:version="0.47 r22583"
   sodipodi:docname="New document 8">
  <title
     id="title3924">NFPA logo</title>
  <defs
     id="defs3709">
    <inkscape:perspective
       sodipodi:type="inkscape:persp3d"
       inkscape:vp_x="0 : 526.18109 : 1"
       inkscape:vp_y="0 : 1000 : 0"
       inkscape:vp_z="744.09448 : 526.18109 : 1"
       inkscape:persp3d-origin="372.04724 : 350.78739 : 1"
       id="perspective3715" />
    <inkscape:perspective
       id="perspective3746"
       inkscape:persp3d-origin="0.5 : 0.33333333 : 1"
       inkscape:vp_z="1 : 0.5 : 1"
       inkscape:vp_y="0 : 1000 : 0"
       inkscape:vp_x="0 : 0.5 : 1"
       sodipodi:type="inkscape:persp3d" />
  </defs>
  <sodipodi:namedview
     id="base"
     pagecolor="#ffffff"
     bordercolor="#666666"
     borderopacity="1.0"
     inkscape:pageopacity="0.0"
     inkscape:pageshadow="2"
     inkscape:zoom="2.0784481"
     inkscape:cx="15.321436"
     inkscape:cy="113.5"
     inkscape:document-units="px"
     inkscape:current-layer="layer1"
     showgrid="false"
     inkscape:window-width="1024"
     inkscape:window-height="689"
     inkscape:window-x="0"
     inkscape:window-y="27"
     inkscape:window-maximized="1" />
  <metadata
     id="metadata3712">
    <rdf:RDF>
      <cc:Work
         rdf:about="">
        <dc:format>image/svg+xml</dc:format>
        <dc:type
           rdf:resource="http://purl.org/dc/dcmitype/StillImage" />
        <dc:title>NFPA logo</dc:title>
        <dc:date>Thursday, August 18, 2011</dc:date>
        <dc:rights>
          <cc:Agent>
            <dc:title>Copyright National Fire Protection Assn. (NFPA).  All rights reserved.</dc:title>
          </cc:Agent>
        </dc:rights>
        <dc:description>Logo of the National Fire Protection Association (NFPA)</dc:description>
      </cc:Work>
    </rdf:RDF>
  </metadata>
  <g
     inkscape:label="Layer 1"
     inkscape:groupmode="layer"
     id="layer1"
     transform="translate(-21.358131,-805.26895)">
    <g
       id="g3889"
       transform="matrix(1.1530786,0,0,1.1530786,-17.424103,-141.70008)">
      <g
         id="g3881">
        <g
           id="g3877">
          <path
             d="m 197.11125,979.27282 0,-2.87162 1.07625,0 c 1.0775,0 1.43625,0.359 1.43625,1.43563 0,0.71774 -0.35875,1.43599 -1.43625,1.43599 l -1.07625,0 z m 2.5125,0.71776 c 1.43625,0 2.15375,-0.71776 2.15375,-2.15376 0,-2.15337 -1.795,-2.87162 -3.59,-2.87162 l -3.23,0 0,8.61525 2.15375,0 0,-3.2305 0.7175,0 2.15375,3.2305 2.5125,0 -2.87125,-3.58987"
             style="fill:#464142;fill-opacity:1;fill-rule:evenodd;stroke:none"
             id="path3754" />
          <path
             d="m 190.16125,979.27282 0,-0.01 c 0.002,-2.106 0.86875,-4.02688 2.30875,-5.414 1.42875,-1.3795 3.425,-2.23888 5.695,-2.24463 l 0.0325,0 c 2.0975,0.003 4.10125,0.86375 5.5775,2.24463 l 0,10e-4 c 1.47625,1.38338 2.435,3.29837 2.44,5.40437 l 0,0.0293 c -0.002,2.28662 -0.96125,4.29487 -2.4425,5.72662 -1.475,1.42575 -3.47375,2.28363 -5.56375,2.2895 l -0.0325,0 c -2.28125,-0.003 -4.28625,-0.86675 -5.72125,-2.30375 -1.42875,-1.43062 -2.28875,-3.42963 -2.29375,-5.70112 l 0,-0.0225 z m 0.9775,-0.01 0,0.0323 c 0.004,2.00687 0.7575,3.76362 2.00625,5.01412 1.25375,1.25638 3.01625,2.01125 5.03125,2.01275 l 0.0325,0 c 1.835,-0.004 3.5925,-0.76075 4.88875,-2.01275 1.2975,-1.25488 2.13875,-3.01563 2.14,-5.02537 l 0,-0.0293 c -0.005,-1.82324 -0.8425,-3.48537 -2.13,-4.69387 l 0,-0.002 c 0,0 -10e-4,0.002 0,0.002 l 0,-0.002 c -1.3,-1.21675 -3.065,-1.97562 -4.91,-1.977 l -0.0325,0 c -2.0075,0.004 -3.76875,0.75775 -5.02,1.96725 -1.2525,1.207 -2.005,2.8775 -2.00625,4.71338"
             style="fill:#464142;fill-opacity:1;fill-rule:nonzero;stroke:none"
             id="path3756" />
        </g>
        <path
           id="path3762"
           style="fill:#ee293d;fill-opacity:1;fill-rule:evenodd;stroke:none"
           d="m 108.80612,880.1997 c 0.35888,-3.59 2.51275,-11.84625 2.15388,-8.61625 -0.35888,6.46125 2.15375,11.4875 6.1025,16.87125 3.2305,3.94875 6.81987,8.615 10.05125,14.7175 2.15375,4.30875 5.7425,10.05125 4.66625,11.84625 -1.0775,1.795 3.23,-4.3075 4.66625,-7.17875 2.15375,-4.6675 2.5125,-7.53875 2.87125,-12.56375 0.71875,-6.1025 -2.15375,-19.385 -0.35875,-15.07625 1.0775,2.5125 12.205,17.58875 14,30.87 1.07625,6.1025 1.43625,10.05125 0,16.15375 -1.43625,7.897 -3.23125,10.40975 -8.25625,18.66613 -1.0775,1.4355 1.07625,-11.12801 1.07625,-14.71776 0.71875,-5.02587 -3.23,9.333 -6.1025,14.71776 -1.79375,3.58937 -2.87125,5.74312 -5.38375,8.97412 -3.59,4.6665 -11.48687,12.92237 -10.769,11.48625 2.51275,-5.38425 2.154,-7.17912 2.8715,-10.05075 1.0775,-5.74312 1.0775,-10.40962 0,-16.87112 -0.7175,-5.38475 -3.58937,-11.48676 -3.2305,-13.28213 -0.35887,-3.94875 -1.07663,5.38475 -1.79437,8.61562 -2.15426,10.76913 -7.53863,24.40926 -7.17975,26.92188 0.35899,0.71825 -5.38425,-5.38425 -7.89688,-9.333 -4.6665,-6.81975 -6.4615,-20.81975 -6.820375,-20.1015 -2.871625,5.38425 -1.794875,15.07612 -1.436,16.15275 0.358875,1.07725 -4.307625,-4.30763 -6.102125,-7.89688 -5.38425,-9.692 -3.948625,-17.58887 -1.794875,-28.71637 1.436,-6.4625 3.2305,-8.61625 4.6665,-16.15375 0.71825,-4.3075 -3.589375,-17.59 -1.077125,-11.4875 1.795375,3.23125 8.61525,9.33375 11.48675,15.43625 1.795,3.94875 5.38487,9.69125 5.74375,10.41 0.35888,1.43625 1.436,-4.3075 1.436,-7.18 0,-3.94875 -2.87212,-14.7175 -3.231,-15.435 -0.35887,-1.43625 -0.71775,-4.66625 -0.35887,-7.17875" />
        <path
           id="path3764"
           style="fill:#ee293d;fill-opacity:1;fill-rule:evenodd;stroke:none"
           d="m 119.21587,856.5072 c 0.71825,3.59 1.436,5.385 2.51313,8.975 2.51275,6.46125 7.5385,8.97375 9.69225,16.1525 0.7175,2.15375 1.07625,3.59 1.07625,6.46125 0.71875,4.3075 -1.435,10.41 -1.07625,11.4875 0.35875,2.15375 -2.5125,-4.66625 -4.3075,-7.18 -2.15425,-3.58875 -3.94925,-5.025 -6.1025,-8.615 -2.51325,-4.3075 -3.94875,-7.17875 -4.6665,-12.205 -1.07763,-4.3075 -1.07763,-6.82 -0.35938,-11.48625 0.35938,-3.94875 2.15375,-11.84625 2.15375,-10.05125 0,2.5125 0.71775,3.94875 1.07675,6.46125" />
        <path
           id="path3794"
           style="fill:#464142;fill-opacity:1;fill-rule:evenodd;stroke:none"
           d="m 184.90625,822.0472 c 10.41,0 20.82,6.82 20.82,17.23 0,33.7425 0,77.895 0,111.63775 0,10.05075 -8.615,15.435 -20.82,15.79388 -12.205,0 -29.435,0 -29.79375,0 l 0,-20.46038 c 0.35875,0 13.99875,0 21.89625,0 4.6675,0 7.17875,-3.58987 7.17875,-7.53862 0,-27.64013 0,-58.51013 0,-88.66388 0,-3.94875 -3.23,-6.82 -6.46,-6.82 l -114.868625,0 c -3.589875,0 -7.179125,2.87125 -7.179125,6.82 0,29.79375 0,60.665 0,88.66388 0,3.58987 2.8715,7.53862 7.538,7.17975 7.8975,0.35887 21.537625,0.35887 21.537625,0 l 0,20.46037 c 0,0 -17.588875,0 -29.075625,0 -12.5635,0 -21.17875,-5.38425 -21.17875,-15.435 0,-34.1015 0,-78.254 0,-111.9965 0,-10.41 10.7685,-16.87125 20.81975,-16.87125 l 129.5855,0" />
      </g>
      <g
         id="g3871">
        <path
           id="path3758"
           style="fill:#464142;fill-opacity:1;fill-rule:evenodd;stroke:none"
           d="m 40.962375,974.24695 12.922375,0 12.564,21.53812 0,-21.53812 13.640125,0 0,43.07575 -13.999,0 -12.205125,-21.17875 0,21.17875 -12.922375,0 0,-43.07575" />
        <path
           id="path3760"
           style="fill:#464142;fill-opacity:1;fill-rule:evenodd;stroke:none"
           d="m 84.755375,1017.3227 0,-43.43462 33.742625,0 0,11.84624 -21.178625,0 0,6.102 17.947745,0 0,10.05128 -18.30662,0 0,15.4351 -12.205125,0" />
        <path
           id="path3766"
           style="fill:#464142;fill-opacity:1;fill-rule:evenodd;stroke:none"
           d="m 145.06125,973.5292 c 8.615,0 15.07625,6.82075 15.07625,15.4355 0,8.61525 -6.46125,15.4356 -15.07625,15.4356 l -9.6925,0 0,12.9224 -12.56312,0 0,-43.7935 22.25562,0 z m 0,20.102 -9.6925,0 0,-9.69187 8.975,0 c 2.15375,0 4.66625,2.51275 5.025,5.02537 -0.35875,2.51275 -2.15375,4.6665 -4.3075,4.6665" />
        <path
           id="path3796"
           style="fill:#464142;fill-opacity:1;fill-rule:evenodd;stroke:none"
           d="m 169.47125,974.24695 12.56375,0 16.1525,43.07575 -13.64,0 -1.94875,-6.1021 -13.16375,0 -2.1175,6.1021 -12.56375,0 14.7175,-43.07575 z m 10.375,28.35835 -3.555,-11.12785 -3.86375,11.12785 7.41875,0" />
      </g>
    </g>
  </g>
</svg>
