<svg xmlns="http://www.w3.org/2000/svg" width="36" height="36" viewBox="0 0 36 36">
  <path id="Union_8" data-name="Union 8" d="M14.372,35.634a17.9,17.9,0,0,1-6.436-2.709,18.054,18.054,0,0,1-6.522-7.92A17.921,17.921,0,0,1,.366,21.627a18.178,18.178,0,0,1,0-7.255A17.9,17.9,0,0,1,3.074,7.936a18.055,18.055,0,0,1,7.919-6.522A17.921,17.921,0,0,1,14.372.366a18.178,18.178,0,0,1,7.255,0,17.9,17.9,0,0,1,6.436,2.709,18.055,18.055,0,0,1,6.522,7.919,17.921,17.921,0,0,1,1.049,3.379,18.178,18.178,0,0,1,0,7.255,17.9,17.9,0,0,1-2.709,6.436,18.054,18.054,0,0,1-7.92,6.522,17.921,17.921,0,0,1-3.379,1.049,18.178,18.178,0,0,1-7.255,0ZM18.1,32.71q.4,0,.8-.022-.4.021-.8.021a14.92,14.92,0,0,1-1.716-.1A14.821,14.821,0,0,0,18.1,32.71Zm.811-.022.033,0Zm.058,0h0Zm-2.606-.076h0Zm12.612-4.751a14.622,14.622,0,0,0,2.589-4.072A14.592,14.592,0,0,0,30.214,9.927a14.657,14.657,0,0,0-6.429-5.294A14.592,14.592,0,0,0,9.927,5.98a14.658,14.658,0,0,0-5.294,6.429A14.593,14.593,0,0,0,5.98,26.267,14.7,14.7,0,0,0,7.1,27.72a12.452,12.452,0,0,1,21.873.137ZM11.419,13.548A6.581,6.581,0,1,1,18,20.129,6.581,6.581,0,0,1,11.419,13.548Z" fill="#ecf8f6"/>
</svg>
